PathFileType	4	(X/Y/Z)	Patient4_TMGait_0pt3_01_right_14.trc.trc
DataRate	CameraRate	NumFrames	NumMarkers	Units	OrigDataRate	OrigDataStartFrame	OrigNumFrames
53.231939163498	53.231939163498	4	33	mm	53.231939163498	18	       141
Frame#	Time	Sacral			L.Shoulder			Chest			R.Shoulder			Neck			R.ASIS			L.ASIS			R.Thigh.Superior			R.Thigh.Lateral			R.Thigh.Inferior			R.Patella			L.Thigh.Superior			L.Thigh.Lateral			L.Thigh.Inferior			L.Patella			L.Shank.Superior			L.Shank.Lateral			L.Shank.Inferior			R.Shank.Superior			R.Shank.Lateral			R.Shank.Inferior			R.Heel			R.Midfoot.Superior			R.Midfoot.Lateral			R.Toe			L.Heel			L.Midfoot.Lateral			L.Midfoot.Superior			L.Toe			L.Elbow			L.Wrist			R.Elbow			R.Wrist			
		X1	Y1	Z1	X2	Y2	Z2	X3	Y3	Z3	X4	Y4	Z4	X5	Y5	Z5	X6	Y6	Z6	X7	Y7	Z7	X8	Y8	Z8	X9	Y9	Z9	X10	Y10	Z10	X11	Y11	Z11	X12	Y12	Z12	X13	Y13	Z13	X14	Y14	Z14	X15	Y15	Z15	X16	Y16	Z16	X17	Y17	Z17	X18	Y18	Z18	X19	Y19	Z19	X20	Y20	Z20	X21	Y21	Z21	X22	Y22	Z22	X23	Y23	Z23	X24	Y24	Z24	X25	Y25	Z25	X26	Y26	Z26	X27	Y27	Z27	X28	Y28	Z28	X29	Y29	Z29	X30	Y30	Z30	X31	Y31	Z31	X32	Y32	Z32	X33	Y33	Z33	

18	25.349357142857	736.741751423154	1000.747525139502	436.437977125594	947.854361794239	1434.041537036627	287.754854065218	1009.770757064288	1367.467599353116	468.915197913369	886.973117968941	1440.353525510186	618.024133458957	899.695312567682	1497.060221366977	440.306328071950	945.522448182626	950.718484653494	593.450924989617	975.791163890010	961.242801706718	319.193353898472	1024.455830944710	770.433803641855	575.014240043824	971.929825459497	651.652502565820	644.611953822112	1063.704137413995	610.516131113907	571.036084734250	1092.136005972075	525.695759059032	593.667923020081	995.118136332754	737.127964506494	359.696208698222	899.122662016375	627.207466294447	290.901878663734	961.358680181713	544.192923570208	366.855679999615	950.883595470325	476.213804506459	378.376720920976	918.821501449658	406.281632363811	369.247923914904	823.634596484819	298.452638073995	315.143299835689	854.214953390201	186.403879271018	394.804338930063	1067.457730565192	436.371029194402	605.405977649492	999.276568626655	329.709577671176	667.448660421549	1064.161130081318	236.349936058259	623.668723771410	959.420628542421	52.121268432569	592.886660746355	1118.626291971125	124.129919453159	644.514508522645	1037.546293894917	50.100943302292	672.453603560438	1240.532510066685	88.832304707949	682.737940617790	711.502671087202	38.019980622459	431.263557559962	788.587012136608	35.723759084174	353.806197834808	871.827243906542	95.350581032733	385.095028455974	1000.623402393596	41.998913674301	360.463648549193	1063.131749883042	1120.176064224788	144.030235638672	1315.398580147247	1083.288019478682	193.001726857647	725.964422054909	1129.928774918712	708.398183330075	712.157742060283	869.795326948137	729.444578467005	
19	25.368142857143	738.368367144527	1000.055113717246	438.395390193972	948.840034744337	1433.722593076288	291.104126150083	1010.061903753532	1367.214885209704	472.498226217534	886.437583255379	1440.013529955251	621.004925988586	899.962910224868	1496.481588578896	443.453718037218	946.487215487616	949.640341919559	596.060966970506	977.848327742972	961.022702439593	321.938130516305	1023.896946101636	767.789586008858	578.295164642214	968.902728412350	649.132159767117	646.708462276714	1060.904686223580	607.653614232411	573.782894257825	1087.825259522089	523.680399151593	595.409442805230	993.750196443952	735.844908267515	361.750854593858	895.881398601496	627.638062394561	291.668786268748	956.032304468489	543.447033427757	367.584849339538	944.391899067749	475.925779987500	378.821776924235	912.715831566469	406.423569404725	369.440401867461	817.568185070842	298.599276873665	315.147465296437	848.319371872284	186.483965908317	394.824251593265	1064.916106618557	434.191513221581	607.207923358670	998.521600465933	326.398449477762	669.213968318303	1064.869510696613	234.166940294627	625.224202096583	962.650607426099	49.254284583086	594.639105261014	1121.430493936117	122.372659480274	645.613921576355	1041.143591729797	47.687870631794	673.856764046872	1243.833747151557	87.981351856684	683.107900283756	705.757216672374	37.909245352641	431.281034030852	782.840742474952	35.647117899710	353.805446564545	866.062222460565	95.325907786182	385.084895901535	994.874233410902	42.040491504196	360.502506800166	1066.800553769560	1122.336028885022	145.828384764940	1319.652056255147	1096.620058057358	196.611509931308	721.013500986500	1132.234953968290	709.123949754907	705.729606486716	872.002720720118	729.511022849347	
20	25.386928571429	740.213065081777	998.978341419117	440.491626715862	949.769030210243	1433.057191986245	294.703375769113	1010.425786039937	1366.647980665726	476.303326549814	885.991722440172	1439.266135449359	624.276819094514	900.264245227642	1495.555442097015	446.875159630519	947.631481714911	948.163705827178	598.869741905856	980.223097723551	960.505742043517	324.919304471548	1023.614310921041	764.818271814807	581.776037917829	966.010582239198	646.253891914999	648.670443356203	1058.481722898293	604.583113259314	576.607103318373	1083.746243675053	521.145641249908	597.184726396045	992.952689159171	734.377416735013	363.895327070857	893.266853059631	627.851058597831	292.648684318566	951.415059324113	542.553940110302	368.513541497944	938.669614876360	475.437933340852	379.476441067486	907.191435021041	406.349400785092	369.836131342843	811.912820440460	298.714393535035	315.255817513111	842.613590436684	186.448075935492	394.904372592909	1062.154739463008	431.480478161619	608.921293487392	996.797395485387	322.951933563438	670.563433760503	1064.132978681433	231.532801622736	626.434234319231	963.333300169622	46.890286249394	595.647102306106	1122.040929030922	119.940874414703	646.374453341608	1041.911267847473	45.334550776353	674.763768278343	1244.496988313299	85.576061890230	683.484524705741	700.014407455505	37.779114869830	431.299132059758	777.101166567431	35.555427244583	353.806120486344	860.306499970724	95.283202583831	385.092825399712	989.140737385868	42.055367857317	360.545084425435	1070.334202841697	1124.016775256378	147.996326492367	1323.365984382186	1109.288110134822	200.285290031320	717.573607366679	1133.360943157098	710.254983913599	701.661497505260	872.924837188496	730.017035025326	
21	25.405714285714	742.258773684903	997.637453961448	442.681067246229	950.734536540612	1432.148078200451	298.573913882991	1010.909080667387	1365.835919265122	480.358847531493	885.655535782383	1438.179271637874	627.846503043326	900.646564521793	1494.372204923350	450.594195972381	948.923233083249	946.404935309997	601.878058545457	982.892743403835	959.748210285473	328.139852586426	1023.616563523138	761.683799595154	585.411542775541	963.356336192725	643.195185717170	650.505577835428	1056.507055203239	601.469754748887	579.482073812252	1080.061805595618	518.282412530915	598.980136893082	992.714629977915	732.759492098705	366.148666105118	891.290003133060	627.858765938276	293.876175203893	947.543357205034	541.529883180901	369.678609658821	933.761996762471	474.752786322091	380.374314321639	902.281965979311	406.070762494996	370.460770335027	806.691864403963	298.822425220336	315.491523708905	837.110858711015	186.311297506239	395.050075868225	1059.380201962381	428.423089241107	610.523271848020	994.419986068479	319.480896107204	671.572153908038	1062.282012205218	228.571441997324	627.307327848670	961.846597106609	45.010375733726	596.034855899366	1120.855827824517	116.974182715959	646.783256342397	1040.308793017278	43.094980964665	675.244757263404	1243.014099387981	81.851641203376	683.774116911471	694.280811905679	37.648691513632	431.309542383061	771.375705347685	35.457319316817	353.808842104221	854.572310235434	95.227941752797	385.113896896860	983.429273147185	42.033533587469	360.587179317335	1073.711341428382	1125.242710172289	150.571594691471	1326.559600742031	1121.178257142360	204.037260702966	715.609962216088	1133.335246055754	711.830569320541	699.852271297775	872.624859852878	731.064283755483	
